# Blender v2.81 (sub 16) OBJ File: ''
# www.blender.org
mtllib tree.mtl
o Cone.001
v -1.525971 2.547373 0.000000
v 0.000000 5.599314 0.000001
v -1.079024 2.547373 -1.079024
v 0.000000 2.547373 -1.525971
v 1.079024 2.547373 -1.079024
v -1.079024 2.547373 1.079024
v 0.000000 2.547373 1.525971
v 1.079024 2.547373 1.079024
v 1.525971 2.547373 0.000000
v -0.969458 4.327174 0.000001
v 0.000000 6.266090 0.000001
v -0.685510 4.327174 -0.685509
v 0.000000 4.327174 -0.969457
v 0.685510 4.327174 -0.685509
v -0.685510 4.327174 0.685511
v 0.000000 4.327174 0.969459
v 0.685510 4.327174 0.685511
v 0.969458 4.327174 0.000001
v -2.086378 0.656203 0.000000
v 0.000000 4.828959 0.000001
v -1.475292 0.656203 -1.475292
v 0.000000 0.656203 -2.086378
v 1.475292 0.656203 -1.475292
v -1.475292 0.656203 1.475292
v 0.000000 0.656203 2.086378
v 1.475292 0.656203 1.475292
v 2.086378 0.656203 0.000000
v 0.000000 -1.000000 -0.630390
v 0.000000 1.000000 -0.630390
v 0.445753 1.000000 -0.445753
v 0.445753 -1.000000 -0.445753
v 0.630390 1.000000 0.000000
v 0.630390 -1.000000 -0.000000
v 0.445753 1.000000 0.445753
v 0.445753 -1.000000 0.445753
v 0.000000 1.000000 0.630390
v 0.000000 -1.000000 0.630390
v -0.445753 1.000000 0.445753
v -0.445753 -1.000000 0.445753
v -0.630390 1.000000 0.000000
v -0.630390 -1.000000 -0.000000
v -0.445753 1.000000 -0.445753
v -0.445753 -1.000000 -0.445753
vt 0.000000 0.000000
vt 1.000000 0.000000
vt 1.000000 1.000000
vt 0.000000 0.000000
vt 1.000000 1.000000
vt 0.000000 0.000000
vt 1.000000 1.000000
vt 0.000000 0.000000
vt 1.000000 1.000000
vt 0.000000 0.000000
vt 1.000000 1.000000
vt 0.000000 0.000000
vt 1.000000 1.000000
vt 0.000000 0.000000
vt 1.000000 1.000000
vt 0.000000 0.000000
vt 1.000000 1.000000
vt 0.500000 1.000000
vt 0.853553 0.853553
vt 1.000000 0.500000
vt 0.853553 0.146447
vt 0.500000 0.000000
vt 0.146447 0.146447
vt 0.000000 0.500000
vt 0.146447 0.853553
vt 0.000000 0.000000
vt 1.000000 0.000000
vt 1.000000 1.000000
vt 0.000000 0.000000
vt 1.000000 1.000000
vt 0.000000 0.000000
vt 1.000000 1.000000
vt 0.000000 0.000000
vt 1.000000 1.000000
vt 0.000000 0.000000
vt 1.000000 1.000000
vt 0.000000 0.000000
vt 1.000000 1.000000
vt 0.000000 0.000000
vt 1.000000 1.000000
vt 0.000000 0.000000
vt 1.000000 1.000000
vt 0.500000 1.000000
vt 0.853553 0.853553
vt 1.000000 0.500000
vt 0.853553 0.146447
vt 0.500000 0.000000
vt 0.146447 0.146447
vt 0.000000 0.500000
vt 0.146447 0.853553
vt 0.000000 0.000000
vt 1.000000 0.000000
vt 1.000000 1.000000
vt 0.000000 0.000000
vt 1.000000 1.000000
vt 0.000000 0.000000
vt 1.000000 1.000000
vt 0.000000 0.000000
vt 1.000000 1.000000
vt 0.000000 0.000000
vt 1.000000 1.000000
vt 0.000000 0.000000
vt 1.000000 1.000000
vt 0.000000 0.000000
vt 1.000000 1.000000
vt 0.000000 0.000000
vt 1.000000 1.000000
vt 0.500000 1.000000
vt 0.853553 0.853553
vt 1.000000 0.500000
vt 0.853553 0.146447
vt 0.500000 0.000000
vt 0.146447 0.146447
vt 0.000000 0.500000
vt 0.146447 0.853553
vt 0.000000 0.000000
vt 1.000000 0.000000
vt 1.000000 1.000000
vt 0.000000 1.000000
vt 0.000000 0.000000
vt 1.000000 0.000000
vt 1.000000 1.000000
vt 0.000000 1.000000
vt 0.000000 0.000000
vt 1.000000 0.000000
vt 1.000000 1.000000
vt 0.000000 1.000000
vt 0.000000 0.000000
vt 1.000000 0.000000
vt 1.000000 1.000000
vt 0.000000 1.000000
vt 0.000000 0.000000
vt 1.000000 0.000000
vt 1.000000 1.000000
vt 0.000000 1.000000
vt 0.000000 0.000000
vt 1.000000 0.000000
vt 1.000000 1.000000
vt 0.000000 1.000000
vt 0.500000 1.000000
vt 0.853553 0.853553
vt 1.000000 0.500000
vt 0.853553 0.146447
vt 0.500000 0.000000
vt 0.146447 0.146447
vt 0.000000 0.500000
vt 0.146447 0.853553
vt 0.000000 0.000000
vt 1.000000 0.000000
vt 1.000000 1.000000
vt 0.000000 1.000000
vt 0.000000 0.000000
vt 1.000000 0.000000
vt 1.000000 1.000000
vt 0.000000 1.000000
vt 0.500000 1.000000
vt 0.853553 0.853553
vt 1.000000 0.500000
vt 0.853553 0.146447
vt 0.500000 0.000000
vt 0.146447 0.146447
vt 0.000000 0.500000
vt 0.146447 0.853553
vn -0.8387 0.4194 -0.3474
vn 0.3474 0.4194 -0.8387
vn -0.8387 0.4194 0.3474
vn -0.3474 0.4194 0.8387
vn 0.3474 0.4194 0.8387
vn 0.8387 0.4194 0.3474
vn -0.3474 0.4194 -0.8387
vn 0.8387 0.4194 -0.3474
vn 0.0000 -1.0000 -0.0000
vn 0.3827 0.0000 -0.9239
vn 0.9239 0.0000 -0.3827
vn 0.9239 -0.0000 0.3827
vn 0.3827 -0.0000 0.9239
vn -0.3827 -0.0000 0.9239
vn -0.9239 -0.0000 0.3827
vn 0.0000 1.0000 0.0000
vn -0.3827 0.0000 -0.9239
vn -0.9239 0.0000 -0.3827
usemtl Material.001
s 1
f 1/1/1 2/2/1 3/3/1
f 4/4/2 2/2/2 5/5/2
f 6/6/3 2/2/3 1/7/3
f 7/8/4 2/2/4 6/9/4
f 8/10/5 2/2/5 7/11/5
f 9/12/6 2/2/6 8/13/6
f 3/14/7 2/2/7 4/15/7
f 5/16/8 2/2/8 9/17/8
f 4/18/9 5/19/9 9/20/9 8/21/9 7/22/9 6/23/9 1/24/9 3/25/9
f 10/26/1 11/27/1 12/28/1
f 13/29/2 11/27/2 14/30/2
f 15/31/3 11/27/3 10/32/3
f 16/33/4 11/27/4 15/34/4
f 17/35/5 11/27/5 16/36/5
f 18/37/6 11/27/6 17/38/6
f 12/39/7 11/27/7 13/40/7
f 14/41/8 11/27/8 18/42/8
f 13/43/9 14/44/9 18/45/9 17/46/9 16/47/9 15/48/9 10/49/9 12/50/9
f 19/51/1 20/52/1 21/53/1
f 22/54/2 20/52/2 23/55/2
f 24/56/3 20/52/3 19/57/3
f 25/58/4 20/52/4 24/59/4
f 26/60/5 20/52/5 25/61/5
f 27/62/6 20/52/6 26/63/6
f 21/64/7 20/52/7 22/65/7
f 23/66/8 20/52/8 27/67/8
f 22/68/9 23/69/9 27/70/9 26/71/9 25/72/9 24/73/9 19/74/9 21/75/9
usemtl Material.002
f 28/76/10 29/77/10 30/78/10 31/79/10
f 31/80/11 30/81/11 32/82/11 33/83/11
f 33/84/12 32/85/12 34/86/12 35/87/12
f 35/88/13 34/89/13 36/90/13 37/91/13
f 37/92/14 36/93/14 38/94/14 39/95/14
f 39/96/15 38/97/15 40/98/15 41/99/15
f 30/100/16 29/101/16 42/102/16 40/103/16 38/104/16 36/105/16 34/106/16 32/107/16
f 43/108/17 42/109/17 29/110/17 28/111/17
f 41/112/18 40/113/18 42/114/18 43/115/18
f 28/116/9 31/117/9 33/118/9 35/119/9 37/120/9 39/121/9 41/122/9 43/123/9
